<svg
  style="margin: 0 6px -9px 0"
  width="24"
  height="24"
  viewBox="0 0 20 19"
  fill="none"
  xmlns="http://www.w3.org/2000/svg"
>
  <path
    d="M6.93555 8.21289C7.29785 8.20605 7.58496 8.08301 7.87207 7.78906L12.9033 2.6416C13.1152 2.42285 13.2246 2.16992 13.2246 1.85547C13.2246 1.22656 12.7119 0.707031 12.0898 0.707031C11.7754 0.707031 11.4883 0.836914 11.249 1.07617L6.94238 5.5332L2.62207 1.07617C2.38965 0.836914 2.10254 0.707031 1.78125 0.707031C1.15918 0.707031 0.646484 1.22656 0.646484 1.85547C0.646484 2.16309 0.749023 2.42285 0.967773 2.6416L5.99902 7.78906C6.28613 8.08301 6.58008 8.21289 6.93555 8.21289Z"
    fill="white"
  />
</svg>